# xmcd
# Track frame offsets:
# 150
# 20808
# 37037
# 51007
# 67006
# 82721
# 100638
# 119041
# 135838
# 149036
# 165956
# 182782
# 199234
# 214271
# 238373
# 255554
# 275289
#
# Disc length: 3912 seconds
# Revision: 0
# Processed by: cddbd v1.5.2PL0 Copyright (c) Steve Scherf et al.
# Submitted via: VisiTrax 2.10.3.257 - For more info visit www.synapsa.com
#
DISCID=fa0f4611
DTITLE=Emmylou Harris - Songbird - Rare Tracks And Forgotten Gems - Disc 4
DYEAR=2007
DGENRE=Country
TTITLE0=Beyond The Blue (with Patty Griffin)
TTITLE1=First In Line (with John Starling)
TTITLE2=Highway Of heartache
TTITLE3=Alone And Forsaken (with Mark Knopfler)
TTITLE4=Child Of Mine
TTITLE5=Heaven Ain't Ready For You Yet
TTITLE6=Wish We Were Back In Missouri
TTITLE7=mama's Hungry Eyes (with Rodney Crowell)
TTITLE8=Here We Are (with George Jones)
TTITLE9=Waltz Across Texas Tonight
TTITLE10=Snowin' On Raton
TTITLE11=Gone
TTITLE12=Don't Let Our Love Die
TTITLE13=The Pearl (Live)
TTITLE14=Wildwood Flower (with Randy Scruggs and Iris DeMent)
TTITLE15=Love And Happiness (with Mark Knopfler)
TTITLE16=When We're Gone, Long Gone (with Dolly Parton and Linda Ronstadt)
EXTD=
EXTT0=
EXTT1=
EXTT2=
EXTT3=
EXTT4=
EXTT5=
EXTT6=
EXTT7=
EXTT8=
EXTT9=
EXTT10=
EXTT11=
EXTT12=
EXTT13=
EXTT14=
EXTT15=
EXTT16=
PLAYORDER=
